<svg xmlns="http://www.w3.org/2000/svg" width="860" height="400" viewBox="0 0 860 400" role="img" aria-label="The same 400 m street at the same instant, walked in opposite directions. Walking with the moving shadow gives 504 seconds of sun and a 252 m continuous exposure; walking against it gives 492 seconds and 246 m. A per-edge sum cannot tell the two apart.">
<rect width="860" height="400" fill="#fcfcfb"/>
<text x="40.0" y="34.0" font-family="system-ui,-apple-system,'Segoe UI',sans-serif" font-size="16" font-weight="600" fill="#0b0b0b" text-anchor="start" style="font-variant-numeric:tabular-nums">Why a per-edge sum is not enough</text>
<text x="40.0" y="55.0" font-family="system-ui,-apple-system,'Segoe UI',sans-serif" font-size="11.5" font-weight="400" fill="#898781" text-anchor="start" style="font-variant-numeric:tabular-nums">Same street, same instant, opposite directions. The walker moves through time, so the shadow moves too.</text>
<text x="820.0" y="34.0" font-family="system-ui,-apple-system,'Segoe UI',sans-serif" font-size="9.5" font-weight="600" fill="#898781" text-anchor="end" style="font-variant-numeric:tabular-nums">MEASURED · shard_selftest.sql</text>
<text x="134.0" y="152.0" font-family="system-ui,-apple-system,'Segoe UI',sans-serif" font-size="12" font-weight="600" fill="#0b0b0b" text-anchor="end" style="font-variant-numeric:tabular-nums">with the sweep</text>
<text x="134.0" y="167.0" font-family="system-ui,-apple-system,'Segoe UI',sans-serif" font-size="9.5" font-weight="400" fill="#898781" text-anchor="end" style="font-variant-numeric:tabular-nums">entry -&gt; exit</text>
<rect x="150.0" y="140.0" width="11.9" height="30.0" rx="0" fill="#9ec5f4" opacity="0.85"/>
<rect x="162.5" y="140.0" width="11.9" height="30.0" rx="0" fill="#9ec5f4" opacity="0.85"/>
<rect x="175.0" y="140.0" width="11.9" height="30.0" rx="0" fill="#9ec5f4" opacity="0.85"/>
<rect x="187.5" y="140.0" width="11.9" height="30.0" rx="0" fill="#9ec5f4" opacity="0.85"/>
<rect x="200.0" y="140.0" width="11.9" height="30.0" rx="0" fill="#9ec5f4" opacity="0.85"/>
<rect x="212.5" y="140.0" width="11.9" height="30.0" rx="0" fill="#9ec5f4" opacity="0.85"/>
<rect x="225.0" y="140.0" width="11.9" height="30.0" rx="0" fill="#9ec5f4" opacity="0.85"/>
<rect x="237.5" y="140.0" width="11.9" height="30.0" rx="0" fill="#9ec5f4" opacity="0.85"/>
<rect x="250.0" y="140.0" width="11.9" height="30.0" rx="0" fill="#9ec5f4" opacity="0.85"/>
<rect x="262.5" y="140.0" width="11.9" height="30.0" rx="0" fill="#9ec5f4" opacity="0.85"/>
<rect x="275.0" y="140.0" width="11.9" height="30.0" rx="0" fill="#9ec5f4" opacity="0.85"/>
<rect x="287.5" y="140.0" width="11.9" height="30.0" rx="0" fill="#9ec5f4" opacity="0.85"/>
<rect x="300.0" y="140.0" width="11.9" height="30.0" rx="0" fill="#9ec5f4" opacity="0.85"/>
<rect x="312.5" y="140.0" width="11.9" height="30.0" rx="0" fill="#9ec5f4" opacity="0.85"/>
<rect x="325.0" y="140.0" width="11.9" height="30.0" rx="0" fill="#9ec5f4" opacity="0.85"/>
<rect x="337.5" y="140.0" width="11.9" height="30.0" rx="0" fill="#9ec5f4" opacity="0.85"/>
<rect x="350.0" y="140.0" width="11.9" height="30.0" rx="0" fill="#9ec5f4" opacity="0.85"/>
<rect x="362.5" y="140.0" width="11.9" height="30.0" rx="0" fill="#9ec5f4" opacity="0.85"/>
<rect x="375.0" y="140.0" width="11.9" height="30.0" rx="0" fill="#9ec5f4" opacity="0.85"/>
<rect x="387.5" y="140.0" width="11.9" height="30.0" rx="0" fill="#9ec5f4" opacity="0.85"/>
<rect x="400.0" y="140.0" width="11.9" height="30.0" rx="0" fill="#c2410c" opacity="0.95"/>
<rect x="412.5" y="140.0" width="11.9" height="30.0" rx="0" fill="#c2410c" opacity="0.95"/>
<rect x="425.0" y="140.0" width="11.9" height="30.0" rx="0" fill="#c2410c" opacity="0.95"/>
<rect x="437.5" y="140.0" width="11.9" height="30.0" rx="0" fill="#c2410c" opacity="0.95"/>
<rect x="450.0" y="140.0" width="11.9" height="30.0" rx="0" fill="#c2410c" opacity="0.95"/>
<rect x="462.5" y="140.0" width="11.9" height="30.0" rx="0" fill="#c2410c" opacity="0.95"/>
<rect x="475.0" y="140.0" width="11.9" height="30.0" rx="0" fill="#c2410c" opacity="0.95"/>
<rect x="487.5" y="140.0" width="11.9" height="30.0" rx="0" fill="#c2410c" opacity="0.95"/>
<rect x="500.0" y="140.0" width="11.9" height="30.0" rx="0" fill="#c2410c" opacity="0.95"/>
<rect x="512.5" y="140.0" width="11.9" height="30.0" rx="0" fill="#c2410c" opacity="0.95"/>
<rect x="525.0" y="140.0" width="11.9" height="30.0" rx="0" fill="#c2410c" opacity="0.95"/>
<rect x="537.5" y="140.0" width="11.9" height="30.0" rx="0" fill="#c2410c" opacity="0.95"/>
<rect x="550.0" y="140.0" width="11.9" height="30.0" rx="0" fill="#c2410c" opacity="0.95"/>
<rect x="562.5" y="140.0" width="11.9" height="30.0" rx="0" fill="#c2410c" opacity="0.95"/>
<rect x="575.0" y="140.0" width="11.9" height="30.0" rx="0" fill="#c2410c" opacity="0.95"/>
<rect x="587.5" y="140.0" width="11.9" height="30.0" rx="0" fill="#c2410c" opacity="0.95"/>
<rect x="600.0" y="140.0" width="11.9" height="30.0" rx="0" fill="#c2410c" opacity="0.95"/>
<rect x="612.5" y="140.0" width="11.9" height="30.0" rx="0" fill="#c2410c" opacity="0.95"/>
<rect x="625.0" y="140.0" width="11.9" height="30.0" rx="0" fill="#c2410c" opacity="0.95"/>
<rect x="637.5" y="140.0" width="11.9" height="30.0" rx="0" fill="#c2410c" opacity="0.95"/>
<rect x="150.0" y="140.0" width="500.0" height="30.0" rx="2" fill="none" stroke="#c3c2b7" stroke-width="1"/>
<line x1="150.0" y1="182.0" x2="650.0" y2="182.0" stroke="#52514e" stroke-width="1" stroke-linecap="butt"/>
<path d="M 643.0 178.5 L 650.0 182 L 643.0 185.5" fill="none" stroke="#52514e" stroke-width="1.4" stroke-linejoin="round" stroke-linecap="round"/>
<text x="666.0" y="153.0" font-family="system-ui,-apple-system,'Segoe UI',sans-serif" font-size="14" font-weight="700" fill="#c2410c" text-anchor="start" style="font-variant-numeric:tabular-nums">504 s</text>
<text x="666.0" y="167.0" font-family="system-ui,-apple-system,'Segoe UI',sans-serif" font-size="9.5" font-weight="400" fill="#898781" text-anchor="start" style="font-variant-numeric:tabular-nums">in sun</text>
<text x="722.0" y="153.0" font-family="system-ui,-apple-system,'Segoe UI',sans-serif" font-size="12" font-weight="600" fill="#0b0b0b" text-anchor="start" style="font-variant-numeric:tabular-nums">252 m</text>
<text x="722.0" y="167.0" font-family="system-ui,-apple-system,'Segoe UI',sans-serif" font-size="9.5" font-weight="400" fill="#898781" text-anchor="start" style="font-variant-numeric:tabular-nums">longest run</text>
<text x="134.0" y="244.0" font-family="system-ui,-apple-system,'Segoe UI',sans-serif" font-size="12" font-weight="600" fill="#0b0b0b" text-anchor="end" style="font-variant-numeric:tabular-nums">against it</text>
<text x="134.0" y="259.0" font-family="system-ui,-apple-system,'Segoe UI',sans-serif" font-size="9.5" font-weight="400" fill="#898781" text-anchor="end" style="font-variant-numeric:tabular-nums">entry -&gt; exit</text>
<rect x="150.0" y="232.0" width="11.9" height="30.0" rx="0" fill="#c2410c" opacity="0.95"/>
<rect x="162.5" y="232.0" width="11.9" height="30.0" rx="0" fill="#c2410c" opacity="0.95"/>
<rect x="175.0" y="232.0" width="11.9" height="30.0" rx="0" fill="#c2410c" opacity="0.95"/>
<rect x="187.5" y="232.0" width="11.9" height="30.0" rx="0" fill="#c2410c" opacity="0.95"/>
<rect x="200.0" y="232.0" width="11.9" height="30.0" rx="0" fill="#c2410c" opacity="0.95"/>
<rect x="212.5" y="232.0" width="11.9" height="30.0" rx="0" fill="#c2410c" opacity="0.95"/>
<rect x="225.0" y="232.0" width="11.9" height="30.0" rx="0" fill="#c2410c" opacity="0.95"/>
<rect x="237.5" y="232.0" width="11.9" height="30.0" rx="0" fill="#c2410c" opacity="0.95"/>
<rect x="250.0" y="232.0" width="11.9" height="30.0" rx="0" fill="#c2410c" opacity="0.95"/>
<rect x="262.5" y="232.0" width="11.9" height="30.0" rx="0" fill="#c2410c" opacity="0.95"/>
<rect x="275.0" y="232.0" width="11.9" height="30.0" rx="0" fill="#c2410c" opacity="0.95"/>
<rect x="287.5" y="232.0" width="11.9" height="30.0" rx="0" fill="#c2410c" opacity="0.95"/>
<rect x="300.0" y="232.0" width="11.9" height="30.0" rx="0" fill="#c2410c" opacity="0.95"/>
<rect x="312.5" y="232.0" width="11.9" height="30.0" rx="0" fill="#c2410c" opacity="0.95"/>
<rect x="325.0" y="232.0" width="11.9" height="30.0" rx="0" fill="#c2410c" opacity="0.95"/>
<rect x="337.5" y="232.0" width="11.9" height="30.0" rx="0" fill="#c2410c" opacity="0.95"/>
<rect x="350.0" y="232.0" width="11.9" height="30.0" rx="0" fill="#c2410c" opacity="0.95"/>
<rect x="362.5" y="232.0" width="11.9" height="30.0" rx="0" fill="#c2410c" opacity="0.95"/>
<rect x="375.0" y="232.0" width="11.9" height="30.0" rx="0" fill="#c2410c" opacity="0.95"/>
<rect x="387.5" y="232.0" width="11.9" height="30.0" rx="0" fill="#c2410c" opacity="0.95"/>
<rect x="400.0" y="232.0" width="11.9" height="30.0" rx="0" fill="#9ec5f4" opacity="0.85"/>
<rect x="412.5" y="232.0" width="11.9" height="30.0" rx="0" fill="#9ec5f4" opacity="0.85"/>
<rect x="425.0" y="232.0" width="11.9" height="30.0" rx="0" fill="#9ec5f4" opacity="0.85"/>
<rect x="437.5" y="232.0" width="11.9" height="30.0" rx="0" fill="#9ec5f4" opacity="0.85"/>
<rect x="450.0" y="232.0" width="11.9" height="30.0" rx="0" fill="#9ec5f4" opacity="0.85"/>
<rect x="462.5" y="232.0" width="11.9" height="30.0" rx="0" fill="#9ec5f4" opacity="0.85"/>
<rect x="475.0" y="232.0" width="11.9" height="30.0" rx="0" fill="#9ec5f4" opacity="0.85"/>
<rect x="487.5" y="232.0" width="11.9" height="30.0" rx="0" fill="#9ec5f4" opacity="0.85"/>
<rect x="500.0" y="232.0" width="11.9" height="30.0" rx="0" fill="#9ec5f4" opacity="0.85"/>
<rect x="512.5" y="232.0" width="11.9" height="30.0" rx="0" fill="#9ec5f4" opacity="0.85"/>
<rect x="525.0" y="232.0" width="11.9" height="30.0" rx="0" fill="#9ec5f4" opacity="0.85"/>
<rect x="537.5" y="232.0" width="11.9" height="30.0" rx="0" fill="#9ec5f4" opacity="0.85"/>
<rect x="550.0" y="232.0" width="11.9" height="30.0" rx="0" fill="#9ec5f4" opacity="0.85"/>
<rect x="562.5" y="232.0" width="11.9" height="30.0" rx="0" fill="#9ec5f4" opacity="0.85"/>
<rect x="575.0" y="232.0" width="11.9" height="30.0" rx="0" fill="#9ec5f4" opacity="0.85"/>
<rect x="587.5" y="232.0" width="11.9" height="30.0" rx="0" fill="#9ec5f4" opacity="0.85"/>
<rect x="600.0" y="232.0" width="11.9" height="30.0" rx="0" fill="#9ec5f4" opacity="0.85"/>
<rect x="612.5" y="232.0" width="11.9" height="30.0" rx="0" fill="#9ec5f4" opacity="0.85"/>
<rect x="625.0" y="232.0" width="11.9" height="30.0" rx="0" fill="#9ec5f4" opacity="0.85"/>
<rect x="637.5" y="232.0" width="11.9" height="30.0" rx="0" fill="#9ec5f4" opacity="0.85"/>
<rect x="150.0" y="232.0" width="500.0" height="30.0" rx="2" fill="none" stroke="#c3c2b7" stroke-width="1"/>
<line x1="150.0" y1="274.0" x2="650.0" y2="274.0" stroke="#52514e" stroke-width="1" stroke-linecap="butt"/>
<path d="M 643.0 270.5 L 650.0 274 L 643.0 277.5" fill="none" stroke="#52514e" stroke-width="1.4" stroke-linejoin="round" stroke-linecap="round"/>
<text x="666.0" y="245.0" font-family="system-ui,-apple-system,'Segoe UI',sans-serif" font-size="14" font-weight="700" fill="#c2410c" text-anchor="start" style="font-variant-numeric:tabular-nums">492 s</text>
<text x="666.0" y="259.0" font-family="system-ui,-apple-system,'Segoe UI',sans-serif" font-size="9.5" font-weight="400" fill="#898781" text-anchor="start" style="font-variant-numeric:tabular-nums">in sun</text>
<text x="722.0" y="245.0" font-family="system-ui,-apple-system,'Segoe UI',sans-serif" font-size="12" font-weight="600" fill="#0b0b0b" text-anchor="start" style="font-variant-numeric:tabular-nums">246 m</text>
<text x="722.0" y="259.0" font-family="system-ui,-apple-system,'Segoe UI',sans-serif" font-size="9.5" font-weight="400" fill="#898781" text-anchor="start" style="font-variant-numeric:tabular-nums">longest run</text>
<rect x="150.0" y="200.0" width="14.0" height="10.0" rx="0" fill="#c2410c"/>
<text x="170.0" y="209.0" font-family="system-ui,-apple-system,'Segoe UI',sans-serif" font-size="9.5" font-weight="400" fill="#898781" text-anchor="start" style="font-variant-numeric:tabular-nums">sun</text>
<rect x="208.0" y="200.0" width="14.0" height="10.0" rx="0" fill="#9ec5f4"/>
<text x="228.0" y="209.0" font-family="system-ui,-apple-system,'Segoe UI',sans-serif" font-size="9.5" font-weight="400" fill="#898781" text-anchor="start" style="font-variant-numeric:tabular-nums">shade</text>
<rect x="40.0" y="296.0" width="780.0" height="42.0" rx="6" fill="#f4f4f1"/>
<text x="56.0" y="314.0" font-family="system-ui,-apple-system,'Segoe UI',sans-serif" font-size="11" font-weight="400" fill="#0b0b0b" text-anchor="start" style="font-variant-numeric:tabular-nums">Both directions cross the SAME set of sample points and the same total sunlit count. A per-edge sunlit_sum is identical for the two.</text>
<text x="56.0" y="330.0" font-family="system-ui,-apple-system,'Segoe UI',sans-serif" font-size="11" font-weight="400" fill="#898781" text-anchor="start" style="font-variant-numeric:tabular-nums">The 12-second difference and the 6 m difference in continuous exposure exist only in the ordered, per-sample series.</text>
<text x="40.0" y="366.0" font-family="system-ui,-apple-system,'Segoe UI',sans-serif" font-size="11" font-weight="400" fill="#52514e" text-anchor="start" style="font-variant-numeric:tabular-nums">This is why v2 keeps v1's 1,577,374,560 rows instead of collapsing them to 28,944,000 per-edge sums —</text>
<text x="40.0" y="382.0" font-family="system-ui,-apple-system,'Segoe UI',sans-serif" font-size="11" font-weight="400" fill="#52514e" text-anchor="start" style="font-variant-numeric:tabular-nums">and therefore why it needs 10 database instances rather than one.</text>
</svg>